<mxfile host="app.diagrams.net" modified="2023-03-25T23:29:55.553Z" agent="Mozilla/5.0 (Windows NT 10.0; Win64; x64) AppleWebKit/537.36 (KHTML, like Gecko) Chrome/111.0.0.0 Safari/537.36 Edg/111.0.1661.44" etag="Ah7moxTNoIrCJ80-U3Ib" version="21.1.1" type="github">
  <diagram name="Page-1" id="C4LKpjwLFbo94XRtJUVv">
    <mxGraphModel dx="1350" dy="819" grid="1" gridSize="10" guides="1" tooltips="1" connect="1" arrows="1" fold="1" page="1" pageScale="1" pageWidth="827" pageHeight="1169" math="0" shadow="0">
      <root>
        <mxCell id="0" />
        <mxCell id="1" parent="0" />
        <mxCell id="EhVZ6taTi9DqS50V6wyk-1" value="&lt;font style=&quot;font-size: 15px;&quot;&gt;Diligence&lt;/font&gt;" style="ellipse;whiteSpace=wrap;html=1;" vertex="1" parent="1">
          <mxGeometry x="314" y="100" width="106" height="60" as="geometry" />
        </mxCell>
        <mxCell id="EhVZ6taTi9DqS50V6wyk-2" value="&lt;font style=&quot;font-size: 15px;&quot;&gt;Score&lt;/font&gt;" style="ellipse;whiteSpace=wrap;html=1;" vertex="1" parent="1">
          <mxGeometry x="314" y="190" width="106" height="60" as="geometry" />
        </mxCell>
        <mxCell id="EhVZ6taTi9DqS50V6wyk-4" value="&lt;font style=&quot;font-size: 15px;&quot;&gt;Ask&lt;/font&gt;" style="rounded=0;whiteSpace=wrap;html=1;" vertex="1" parent="1">
          <mxGeometry x="314" y="280" width="106" height="40" as="geometry" />
        </mxCell>
        <mxCell id="EhVZ6taTi9DqS50V6wyk-5" value="&lt;font style=&quot;font-size: 15px;&quot;&gt;Quality&lt;/font&gt;" style="ellipse;whiteSpace=wrap;html=1;" vertex="1" parent="1">
          <mxGeometry x="314" y="350" width="106" height="60" as="geometry" />
        </mxCell>
        <mxCell id="EhVZ6taTi9DqS50V6wyk-6" value="&lt;font style=&quot;font-size: 15px;&quot;&gt;Apply&lt;/font&gt;" style="rounded=0;whiteSpace=wrap;html=1;" vertex="1" parent="1">
          <mxGeometry x="314" y="440" width="106" height="40" as="geometry" />
        </mxCell>
        <mxCell id="EhVZ6taTi9DqS50V6wyk-7" value="&lt;font style=&quot;font-size: 15px;&quot;&gt;Utility&lt;/font&gt;" style="rhombus;whiteSpace=wrap;html=1;" vertex="1" parent="1">
          <mxGeometry x="307" y="600" width="120" height="50" as="geometry" />
        </mxCell>
        <mxCell id="EhVZ6taTi9DqS50V6wyk-8" value="&lt;font style=&quot;font-size: 15px;&quot;&gt;Accept&lt;/font&gt;" style="ellipse;whiteSpace=wrap;html=1;" vertex="1" parent="1">
          <mxGeometry x="314" y="510" width="106" height="60" as="geometry" />
        </mxCell>
        <mxCell id="EhVZ6taTi9DqS50V6wyk-9" value="" style="endArrow=classic;html=1;rounded=0;exitX=0.5;exitY=1;exitDx=0;exitDy=0;entryX=0.5;entryY=0;entryDx=0;entryDy=0;" edge="1" parent="1" source="EhVZ6taTi9DqS50V6wyk-1" target="EhVZ6taTi9DqS50V6wyk-2">
          <mxGeometry width="50" height="50" relative="1" as="geometry">
            <mxPoint x="390" y="280" as="sourcePoint" />
            <mxPoint x="440" y="230" as="targetPoint" />
          </mxGeometry>
        </mxCell>
        <mxCell id="EhVZ6taTi9DqS50V6wyk-10" value="" style="endArrow=classic;html=1;rounded=0;exitX=0.5;exitY=1;exitDx=0;exitDy=0;entryX=0.5;entryY=0;entryDx=0;entryDy=0;" edge="1" parent="1" source="EhVZ6taTi9DqS50V6wyk-2" target="EhVZ6taTi9DqS50V6wyk-4">
          <mxGeometry width="50" height="50" relative="1" as="geometry">
            <mxPoint x="377" y="170" as="sourcePoint" />
            <mxPoint x="377" y="200" as="targetPoint" />
          </mxGeometry>
        </mxCell>
        <mxCell id="EhVZ6taTi9DqS50V6wyk-11" value="" style="endArrow=classic;html=1;rounded=0;exitX=0.5;exitY=1;exitDx=0;exitDy=0;entryX=0.5;entryY=0;entryDx=0;entryDy=0;" edge="1" parent="1" source="EhVZ6taTi9DqS50V6wyk-4" target="EhVZ6taTi9DqS50V6wyk-5">
          <mxGeometry width="50" height="50" relative="1" as="geometry">
            <mxPoint x="387" y="180" as="sourcePoint" />
            <mxPoint x="387" y="210" as="targetPoint" />
          </mxGeometry>
        </mxCell>
        <mxCell id="EhVZ6taTi9DqS50V6wyk-12" value="" style="endArrow=classic;html=1;rounded=0;exitX=0.5;exitY=1;exitDx=0;exitDy=0;entryX=0.5;entryY=0;entryDx=0;entryDy=0;" edge="1" parent="1" source="EhVZ6taTi9DqS50V6wyk-5" target="EhVZ6taTi9DqS50V6wyk-6">
          <mxGeometry width="50" height="50" relative="1" as="geometry">
            <mxPoint x="397" y="190" as="sourcePoint" />
            <mxPoint x="397" y="220" as="targetPoint" />
          </mxGeometry>
        </mxCell>
        <mxCell id="EhVZ6taTi9DqS50V6wyk-13" value="" style="endArrow=classic;html=1;rounded=0;exitX=0.5;exitY=1;exitDx=0;exitDy=0;" edge="1" parent="1" source="EhVZ6taTi9DqS50V6wyk-6" target="EhVZ6taTi9DqS50V6wyk-8">
          <mxGeometry width="50" height="50" relative="1" as="geometry">
            <mxPoint x="407" y="200" as="sourcePoint" />
            <mxPoint x="407" y="230" as="targetPoint" />
          </mxGeometry>
        </mxCell>
        <mxCell id="EhVZ6taTi9DqS50V6wyk-14" value="" style="endArrow=classic;html=1;rounded=0;exitX=0.5;exitY=1;exitDx=0;exitDy=0;entryX=0.5;entryY=0;entryDx=0;entryDy=0;" edge="1" parent="1" source="EhVZ6taTi9DqS50V6wyk-8" target="EhVZ6taTi9DqS50V6wyk-7">
          <mxGeometry width="50" height="50" relative="1" as="geometry">
            <mxPoint x="417" y="210" as="sourcePoint" />
            <mxPoint x="417" y="240" as="targetPoint" />
          </mxGeometry>
        </mxCell>
        <mxCell id="EhVZ6taTi9DqS50V6wyk-15" value="" style="curved=1;endArrow=classic;html=1;rounded=0;exitX=0;exitY=0.5;exitDx=0;exitDy=0;entryX=0;entryY=0.5;entryDx=0;entryDy=0;" edge="1" parent="1" source="EhVZ6taTi9DqS50V6wyk-2" target="EhVZ6taTi9DqS50V6wyk-5">
          <mxGeometry width="50" height="50" relative="1" as="geometry">
            <mxPoint x="390" y="350" as="sourcePoint" />
            <mxPoint x="440" y="300" as="targetPoint" />
            <Array as="points">
              <mxPoint x="280" y="230" />
              <mxPoint x="280" y="370" />
            </Array>
          </mxGeometry>
        </mxCell>
        <mxCell id="EhVZ6taTi9DqS50V6wyk-16" value="" style="curved=1;endArrow=classic;html=1;rounded=0;exitX=0;exitY=0.5;exitDx=0;exitDy=0;entryX=0;entryY=0.5;entryDx=0;entryDy=0;" edge="1" parent="1" source="EhVZ6taTi9DqS50V6wyk-6" target="EhVZ6taTi9DqS50V6wyk-7">
          <mxGeometry width="50" height="50" relative="1" as="geometry">
            <mxPoint x="314" y="460" as="sourcePoint" />
            <mxPoint x="314" y="620" as="targetPoint" />
            <Array as="points">
              <mxPoint x="280" y="470" />
              <mxPoint x="280" y="610" />
            </Array>
          </mxGeometry>
        </mxCell>
        <mxCell id="EhVZ6taTi9DqS50V6wyk-17" value="" style="curved=1;endArrow=classic;html=1;rounded=0;" edge="1" parent="1">
          <mxGeometry width="50" height="50" relative="1" as="geometry">
            <mxPoint x="420" y="378" as="sourcePoint" />
            <mxPoint x="420" y="543" as="targetPoint" />
            <Array as="points">
              <mxPoint x="454.00000000000045" y="387.5" />
              <mxPoint x="454.00000000000045" y="527.5" />
            </Array>
          </mxGeometry>
        </mxCell>
      </root>
    </mxGraphModel>
  </diagram>
</mxfile>
